<svg width="61" height="26" viewBox="0 0 61 26" fill="none" xmlns="http://www.w3.org/2000/svg">
<g clip-path="url(#clip0_2197_11715)">
<path d="M12.7013 14.9164C9.93692 15.1699 5.98744 17.4693 6.399 20.6698C6.44115 21.0046 6.59239 21.2705 6.79817 21.4601C6.57007 24.0253 8.10474 26.5119 11.1642 25.9062C14.0079 25.3425 16.4029 23.048 17.2929 20.3448C18.302 17.2773 15.8599 14.6234 12.6988 14.9139L12.7013 14.9164ZM13.6707 19.7737C13.1005 21.1228 12.9021 21.9672 11.7716 23.1268C11.2782 23.6339 9.98403 23.8924 9.47826 23.1834C8.97001 22.467 9.2576 21.3271 9.53528 20.5959C9.74602 20.0396 9.54272 19.6013 9.17331 19.3502C10.5939 17.0139 15.2103 16.1202 13.6682 19.7737H13.6707Z" fill="white"/>
<path d="M28.7843 11.2583C27.9166 11.6104 27.0017 11.9821 26.067 12.3268C26.4042 11.8639 26.7463 11.4036 27.0686 10.9432C27.9835 9.64085 25.834 8.40744 24.929 9.69993C24.0786 10.9112 23.1167 12.1101 22.3878 13.4125C21.582 13.5774 20.7763 13.6833 19.9829 13.698C18.3887 13.73 18.3838 16.1919 19.9829 16.1599C20.4465 16.1501 20.9126 16.1132 21.3812 16.0565C21.1903 16.9551 20.4837 18.8434 20.4787 19.7715C20.4614 22.7356 21.4457 25.104 24.9142 25.8401C26.4711 26.17 27.1356 23.7967 25.5736 23.4668C23.077 22.9375 23.4687 19.5179 23.6373 17.5509C23.6993 16.8271 23.8877 16.1525 24.153 15.5075C25.9778 15.0151 27.7703 14.3135 29.4438 13.634C30.9016 13.0432 30.2619 10.6601 28.7843 11.2608V11.2583Z" fill="white"/>
<path d="M36.899 20.7562C36.5444 21.7901 35.0122 23.9123 33.6263 23.2944C32.5652 22.8241 33.7701 20.0742 34.1495 19.2963C34.861 19.636 35.6122 19.8403 36.4279 19.7123C37.9923 19.4686 38.8006 18.1835 38.9468 16.6916C39.0882 15.244 38.2353 13.6758 36.6015 13.6905C35.2503 13.7028 34.1668 14.8452 33.361 15.9136C33.3065 15.8767 33.2544 15.8398 33.1999 15.8053C31.8636 14.9338 30.619 17.0633 31.9479 17.9299C31.9751 17.9471 32.0024 17.9644 32.0297 17.9841C29.1463 20.1259 29.6372 24.4588 32.0594 25.2368C35.4312 26.32 38.3717 24.0895 39.2915 21.4061C39.8072 19.9019 37.4122 19.2569 36.9014 20.7512L36.899 20.7562ZM36.4998 16.2927C36.6362 16.3666 36.2841 17.1323 36.2097 17.1913C35.9816 17.3735 35.7089 17.2923 35.4536 17.1963C35.8775 16.6202 36.2915 16.1795 36.4998 16.2927Z" fill="white"/>
<path d="M56.106 15.1603C54.492 14.1287 52.687 14.0918 51.1821 15.3203C50.7383 15.6822 50.3417 16.0859 50.002 16.5217C48.8714 14.4045 47.0665 12.6122 44.7112 14.2321C43.3749 15.1504 42.9559 16.7556 42.6832 18.2549C42.3014 20.3745 42.2171 22.5435 42.3584 24.6902C42.4625 26.2732 44.9294 26.0295 44.8253 24.449C44.6765 22.1619 44.5947 19.3012 45.4996 17.1396C45.6608 16.7556 46.0153 16.0342 46.5558 16.0982C46.9922 16.1499 47.3145 16.8196 47.5128 17.1372C48.1103 18.0973 48.5095 19.1485 48.8045 20.2367C49.2061 21.7064 51.1524 20.9211 51.1945 19.6754C51.2268 18.7128 52.1515 17.147 53.106 16.9821C54.2192 16.7876 55.3374 18.6709 55.8828 19.6089C57.1448 21.7729 57.591 22.9275 58.5282 24.8675C59.2174 26.2954 60.9976 26.1994 60.9951 24.6262C60.9926 21.0171 59.2224 17.1519 56.101 15.1578L56.106 15.1603Z" fill="white"/>
<path d="M3.60509 13.6955C3.0175 9.60876 3.78607 4.64067 2.46462 0.844437C1.94645 -0.642543 -0.448522 -0.00245197 0.0746043 1.4993C1.34151 5.14289 1.13325 10.0396 1.0564 13.8949C0.972101 18.1343 1.22747 20.9851 1.32416 24.7838C1.36383 26.3644 3.8431 26.3718 3.80343 24.7838C3.70426 20.9039 4.15053 17.4942 3.60509 13.6955Z" fill="white"/>
</g>
<defs>
<clipPath id="clip0_2197_11715">
<rect width="61" height="26" fill="white"/>
</clipPath>
</defs>
</svg>
