<svg width="61" height="26" viewBox="0 0 61 26" fill="none" xmlns="http://www.w3.org/2000/svg">
<g clip-path="url(#clip0_2197_11755)">
<path d="M12.7012 14.9164C9.9368 15.1699 5.98732 17.4693 6.39888 20.6698C6.44103 21.0046 6.59226 21.2705 6.79804 21.4601C6.56995 24.0253 8.10462 26.5119 11.164 25.9062C14.0078 25.3425 16.4027 23.048 17.2928 20.3448C18.3019 17.2773 15.8598 14.6234 12.6987 14.9139L12.7012 14.9164ZM13.6706 19.7737C13.1004 21.1228 12.902 21.9672 11.7715 23.1268C11.2781 23.6339 9.98391 23.8924 9.47814 23.1834C8.96989 22.467 9.25748 21.3271 9.53516 20.5959C9.7459 20.0396 9.5426 19.6013 9.17319 19.3502C10.5938 17.0139 15.2102 16.1202 13.6681 19.7737H13.6706Z" fill="#070908"/>
<path d="M28.7843 11.2583C27.9166 11.6104 27.0017 11.9821 26.067 12.3268C26.4042 11.8639 26.7463 11.4036 27.0686 10.9432C27.9835 9.64085 25.834 8.40744 24.929 9.69993C24.0786 10.9112 23.1167 12.1101 22.3878 13.4125C21.582 13.5774 20.7763 13.6833 19.9829 13.698C18.3887 13.73 18.3838 16.1919 19.9829 16.1599C20.4465 16.1501 20.9126 16.1132 21.3812 16.0565C21.1903 16.9551 20.4837 18.8434 20.4787 19.7715C20.4614 22.7356 21.4457 25.104 24.9142 25.8401C26.4711 26.17 27.1356 23.7967 25.5736 23.4668C23.077 22.9375 23.4687 19.5179 23.6373 17.5509C23.6993 16.8271 23.8877 16.1525 24.153 15.5075C25.9778 15.0151 27.7703 14.3135 29.4438 13.634C30.9016 13.0432 30.2619 10.6601 28.7843 11.2608V11.2583Z" fill="#070908"/>
<path d="M36.8991 20.7562C36.5446 21.7901 35.0124 23.9123 33.6265 23.2944C32.5653 22.8241 33.7703 20.0742 34.1496 19.2963C34.8611 19.636 35.6123 19.8403 36.428 19.7123C37.9924 19.4686 38.8007 18.1835 38.947 16.6916C39.0883 15.244 38.2354 13.6758 36.6016 13.6905C35.2504 13.7028 34.1669 14.8452 33.3612 15.9136C33.3066 15.8767 33.2546 15.8398 33.2 15.8053C31.8637 14.9338 30.6191 17.0633 31.948 17.9299C31.9753 17.9471 32.0025 17.9644 32.0298 17.9841C29.1464 20.1259 29.6373 24.4588 32.0596 25.2368C35.4314 26.32 38.3718 24.0895 39.2916 21.4061C39.8073 19.9019 37.4123 19.2569 36.9016 20.7512L36.8991 20.7562ZM36.4999 16.2927C36.6363 16.3666 36.2842 17.1323 36.2099 17.1913C35.9818 17.3735 35.709 17.2923 35.4537 17.1963C35.8776 16.6202 36.2917 16.1795 36.4999 16.2927Z" fill="#070908"/>
<path d="M56.1058 15.1603C54.4918 14.1287 52.6869 14.0918 51.182 15.3203C50.7382 15.6822 50.3415 16.0859 50.0019 16.5217C48.8713 14.4045 47.0664 12.6122 44.7111 14.2321C43.3748 15.1504 42.9558 16.7556 42.6831 18.2549C42.3013 20.3745 42.217 22.5435 42.3583 24.6902C42.4624 26.2732 44.9293 26.0295 44.8252 24.449C44.6764 22.1619 44.5946 19.3012 45.4995 17.1396C45.6607 16.7556 46.0152 16.0342 46.5557 16.0982C46.992 16.1499 47.3143 16.8196 47.5127 17.1372C48.1102 18.0973 48.5093 19.1485 48.8044 20.2367C49.206 21.7064 51.1523 20.9211 51.1944 19.6754C51.2266 18.7128 52.1514 17.147 53.1059 16.9821C54.2191 16.7876 55.3373 18.6709 55.8827 19.6089C57.1447 21.7729 57.5909 22.9275 58.5281 24.8675C59.2173 26.2954 60.9974 26.1994 60.995 24.6262C60.9925 21.0171 59.2223 17.1519 56.1009 15.1578L56.1058 15.1603Z" fill="#070908"/>
<path d="M3.60497 13.6955C3.01738 9.60876 3.78595 4.64067 2.4645 0.844437C1.94633 -0.642543 -0.448644 -0.00245197 0.0744822 1.4993C1.34139 5.14289 1.13313 10.0396 1.05627 13.8949C0.971979 18.1343 1.22734 20.9851 1.32404 24.7838C1.3637 26.3644 3.84298 26.3718 3.80331 24.7838C3.70414 20.9039 4.1504 17.4942 3.60497 13.6955Z" fill="#070908"/>
</g>
<defs>
<clipPath id="clip0_2197_11755">
<rect width="61" height="26" fill="white"/>
</clipPath>
</defs>
</svg>
